<?xml version="1.0" encoding="utf-8"?>
<!-- Generator: Adobe Illustrator 14.0.0, SVG Export Plug-In . SVG Version: 6.00 Build 43363)  -->
<!DOCTYPE svg PUBLIC "-//W3C//DTD SVG 1.1//EN" "http://www.w3.org/Graphics/SVG/1.1/DTD/svg11.dtd">
<svg version="1.1" id="Calque_1" xmlns="http://www.w3.org/2000/svg" xmlns:xlink="http://www.w3.org/1999/xlink" x="0px" y="0px"
	 width="80px" height="60px" viewBox="0 0 80 60" enable-background="new 0 0 80 60" xml:space="preserve">
<path id="Cloud_1_" fill="#00D4FF" d="M55.83,27.256c0.04-0.347,0.053-0.699,0.053-1.059c0-6.177-5.004-11.18-11.186-11.18
	c-4.793,0-8.87,3.017-10.462,7.264c-1.055-1.158-2.559-1.896-4.241-1.896c-3.184,0-5.766,2.577-5.766,5.761
	c0,0.375,0.041,0.737,0.114,1.097c-4.243,0.694-7.493,4.355-7.493,8.796c0,4.945,4.004,8.942,8.947,8.942h28.406
	c4.943,0,8.947-3.997,8.947-8.942C63.154,31.656,59.992,28.027,55.83,27.256z"/>
</svg>
