<?xml version="1.0" encoding="utf-8"?>
<!-- Generator: Adobe Illustrator 14.0.0, SVG Export Plug-In . SVG Version: 6.00 Build 43363)  -->
<!DOCTYPE svg PUBLIC "-//W3C//DTD SVG 1.1//EN" "http://www.w3.org/Graphics/SVG/1.1/DTD/svg11.dtd">
<svg version="1.1" id="Calque_1" xmlns="http://www.w3.org/2000/svg" xmlns:xlink="http://www.w3.org/1999/xlink" x="0px" y="0px"
	 width="80px" height="60px" viewBox="0 0 80 60" enable-background="new 0 0 80 60" xml:space="preserve">
<path id="Cloud" fill="#FFFFFF" d="M63.111,24.581c0.059-0.498,0.075-0.999,0.075-1.513c0-8.815-7.143-15.958-15.965-15.958
	c-6.84,0-12.66,4.308-14.934,10.369c-1.504-1.653-3.65-2.706-6.053-2.706c-4.543,0-8.229,3.678-8.229,8.223
	c0,0.537,0.057,1.053,0.162,1.565c-6.057,0.992-10.693,6.217-10.693,12.557c0,7.059,5.715,12.762,12.77,12.762H60.79
	c7.057,0,12.771-5.703,12.771-12.762C73.566,30.859,69.053,25.681,63.111,24.581z"/>
</svg>
