<?xml version="1.0" encoding="utf-8"?>
<!-- Generator: Adobe Illustrator 14.0.0, SVG Export Plug-In . SVG Version: 6.00 Build 43363)  -->
<!DOCTYPE svg PUBLIC "-//W3C//DTD SVG 1.1//EN" "http://www.w3.org/Graphics/SVG/1.1/DTD/svg11.dtd">
<svg version="1.1" id="Calque_1" xmlns="http://www.w3.org/2000/svg" xmlns:xlink="http://www.w3.org/1999/xlink" x="0px" y="0px"
	 width="80px" height="60px" viewBox="0 0 80 60" enable-background="new 0 0 80 60" xml:space="preserve">
<g>
	<path fill="#FFFFFF" d="M11.551,18.811h2.463l4.509,5.79h0.026v-5.79h2.462v9.471h-2.462l-4.51-5.802h-0.025v5.802h-2.463V18.811z"
		/>
	<path fill="#FFFFFF" d="M37.175,24.563l2.299-5.753h2.675l-4.044,9.471h-1.91l-3.982-9.471h2.676L37.175,24.563z"/>
	<path fill="#FFFFFF" d="M44.046,26.637l-0.653,1.645H40.78l3.644-9.471h2.688l3.567,9.471h-2.626l-0.616-1.645H44.046z
		 M45.767,21.737h-0.024l-1.017,3.016h2.047L45.767,21.737z"/>
	<path fill="#FFFFFF" d="M54.459,28.281h-2.462v-7.386h-2.034v-2.084h6.532v2.084h-2.036V28.281z"/>
	<path fill="#FFFFFF" d="M60.219,28.281h-2.463v-9.471h2.463V28.281z"/>
	<path fill="#FFFFFF" d="M65.98,24.563l2.3-5.753h2.676l-4.045,9.471h-1.91l-3.981-9.471h2.675L65.98,24.563z"/>
	<path fill="#FFFFFF" d="M74.033,20.895v1.584h2.775v2.084h-2.775v1.633h2.928v2.084h-5.39v-9.471h5.39v2.084H74.033z"/>
	<g>
		<path fill="#FFFFFF" d="M53.59,29.932v2.789h0.449l2.368-2.69h1.234l-2.866,3.075l3.385,3.623h-1.325l-2.845-3.243h-0.4v3.243
			H52.61v-6.797H53.59z"/>
		<path fill="#FFFFFF" d="M63.443,34.703h1.002l0.008,0.245c0,0.697-0.213,1.185-0.635,1.462c-0.423,0.278-1.164,0.417-2.225,0.417
			c-1.233,0-2.043-0.225-2.428-0.677c-0.386-0.45-0.579-1.397-0.579-2.842c0-1.335,0.194-2.232,0.582-2.689
			c0.388-0.459,1.146-0.688,2.278-0.688c1.232,0,2.04,0.198,2.424,0.597c0.383,0.396,0.574,1.232,0.574,2.508v0.526h-4.82
			c0,1.055,0.112,1.727,0.339,2.018c0.227,0.289,0.756,0.434,1.588,0.434c0.789,0,1.303-0.068,1.538-0.206s0.354-0.436,0.354-0.894
			V34.703z M63.443,32.798l-0.007-0.315c0-0.725-0.119-1.195-0.357-1.412c-0.237-0.218-0.752-0.325-1.541-0.325
			c-0.795,0-1.31,0.127-1.547,0.382c-0.235,0.255-0.354,0.811-0.354,1.671H63.443z"/>
		<path fill="#FFFFFF" d="M70.752,30.03l-1.899,7.083c-0.266,1-0.562,1.688-0.886,2.062c-0.326,0.372-0.789,0.56-1.391,0.56
			c-0.122,0-0.278-0.018-0.471-0.05v-0.812c0.137,0.028,0.251,0.044,0.344,0.049c0.528,0.029,0.921-0.398,1.178-1.282l-0.024-0.404
			c0.004-0.023-0.096-0.507-0.096-0.507l-2.424-6.698h1.044l1.031,2.984l0.517,1.485l0.253,0.751l0.26,0.741h0.028l0.181-0.741
			l0.177-0.751l0.377-1.485l0.758-2.984H70.752z"/>
		<path fill="#FFFFFF" d="M76.765,31.781h-0.981c0-0.467-0.095-0.757-0.284-0.868c-0.188-0.112-0.677-0.168-1.462-0.168
			c-0.727,0-1.19,0.06-1.386,0.178c-0.196,0.119-0.295,0.406-0.295,0.858c0,0.688,0.33,1.047,0.988,1.079l0.792,0.043l1.001,0.048
			c1.215,0.061,1.823,0.697,1.823,1.906c0,0.752-0.202,1.269-0.604,1.55c-0.401,0.28-1.138,0.42-2.207,0.42
			c-1.098,0-1.854-0.133-2.268-0.399c-0.412-0.267-0.62-0.755-0.62-1.465l0.008-0.363h1.017l0.006,0.314
			c0,0.438,0.113,0.732,0.337,0.879c0.224,0.147,0.665,0.221,1.324,0.221c0.808,0,1.34-0.077,1.594-0.23
			c0.255-0.155,0.382-0.478,0.382-0.968c0-0.705-0.319-1.058-0.96-1.058c-1.49,0-2.47-0.126-2.938-0.379
			c-0.47-0.252-0.704-0.775-0.704-1.569c0-0.752,0.186-1.253,0.556-1.503c0.372-0.249,1.111-0.375,2.218-0.375
			c1.776,0,2.664,0.535,2.664,1.604V31.781z"/>
	</g>
	<rect x="2.231" y="29.739" fill="#00D4FF" width="48.288" height="7.157"/>
	<polygon opacity="0.4" fill="#FFFFFF" points="41.621,36.896 2.231,36.896 2.231,29.739 46.783,29.739 	"/>
	<polygon opacity="0.5" fill="#FFFFFF" points="28.846,36.896 2.231,36.896 2.231,29.739 34.007,29.739 	"/>
	<g>
		<g>
			<path fill="#00D4FF" d="M2.231,28.281v-9.471h7.354v2.066H4.801v1.875v1.281v2.182h4.785v2.066H2.231z"/>
		</g>
		<rect x="6.861" y="22.905" fill="#00D4FF" width="2.725" height="1.281"/>
	</g>
	<path fill="#FFFFFF" d="M31.185,19.645c-0.567-0.654-1.836-0.981-3.809-0.981c-2.214,0-3.605,0.332-4.172,0.993
		c-0.567,0.663-0.851,1.649-0.851,4.235c0,2.172,0.29,2.939,0.867,3.579c0.578,0.638,1.852,0.958,3.823,0.958
		c2.189,0,3.568-0.324,4.138-0.971c0.569-0.646,0.855-1.574,0.855-4.059C32.036,21.126,31.751,20.3,31.185,19.645z M29.066,25.751
		c-0.069,0.098-0.325,0.419-1.789,0.419c-1.652,0-1.936-0.294-2.013-0.385c-0.197-0.229-0.353-0.222-0.353-1.723
		c0-2.228,0.123-2.438,0.32-2.739c0.027-0.041,0.252-0.402,1.993-0.402c1.589,0,1.82,0.315,1.867,0.379
		c0.182,0.25,0.322,0.458,0.322,2.206C29.413,25.269,29.263,25.474,29.066,25.751z"/>
</g>
</svg>
