<?xml version="1.0" encoding="utf-8"?>
<!-- Generator: Adobe Illustrator 14.0.0, SVG Export Plug-In . SVG Version: 6.00 Build 43363)  -->
<!DOCTYPE svg PUBLIC "-//W3C//DTD SVG 1.1//EN" "http://www.w3.org/Graphics/SVG/1.1/DTD/svg11.dtd">
<svg version="1.1" id="Calque_1" xmlns="http://www.w3.org/2000/svg" xmlns:xlink="http://www.w3.org/1999/xlink" x="0px" y="0px"
	 width="80px" height="60px" viewBox="0 0 80 60" enable-background="new 0 0 80 60" xml:space="preserve">
<path fill="#001C53" d="M57.735,26.631h-3.437c-0.366-1.563-0.981-3.033-1.807-4.36l2.434-2.428c0.528-0.53,0.602-1.315,0.161-1.752
	l-3.179-3.177c-0.432-0.438-1.216-0.364-1.745,0.165l-2.433,2.429c-1.324-0.824-2.794-1.437-4.362-1.805v-3.436
	c0-0.75-0.496-1.354-1.122-1.354h-4.49c-0.62,0-1.12,0.604-1.12,1.354v3.436c-1.57,0.369-3.038,0.981-4.367,1.805l-2.425-2.429
	c-0.532-0.529-1.317-0.604-1.749-0.165l-3.179,3.177c-0.44,0.437-0.367,1.222,0.16,1.752l2.43,2.428
	c-0.825,1.327-1.437,2.797-1.804,4.36h-3.435c-0.752,0-1.357,0.502-1.357,1.121v4.494c0,0.62,0.605,1.121,1.357,1.121h3.435
	c0.368,1.565,0.979,3.035,1.804,4.362l-2.43,2.429c-0.527,0.53-0.6,1.315-0.16,1.75l3.179,3.177c0.432,0.44,1.217,0.366,1.749-0.165
	l2.425-2.428c1.329,0.823,2.797,1.438,4.367,1.806v3.436c0,0.748,0.5,1.355,1.12,1.355h4.49c0.626,0,1.122-0.607,1.122-1.355v-3.436
	c1.568-0.367,3.038-0.982,4.362-1.806l2.433,2.428c0.529,0.531,1.313,0.605,1.745,0.165l3.179-3.177
	c0.44-0.435,0.367-1.22-0.161-1.75l-2.434-2.429c0.825-1.327,1.44-2.797,1.807-4.362h3.437c0.752,0,1.354-0.501,1.354-1.121v-4.494
	C59.089,27.133,58.487,26.631,57.735,26.631 M46.153,36.152c-1.572,1.575-3.746,2.552-6.151,2.552s-4.575-0.977-6.152-2.552l0,0
	c-1.581-1.577-2.553-3.75-2.553-6.152c0-4.808,3.897-8.7,8.705-8.7c4.806,0,8.706,3.893,8.706,8.7
	C48.708,32.402,47.73,34.575,46.153,36.152L46.153,36.152z"/>
</svg>
