<?xml version="1.0" encoding="utf-8"?>
<!-- Generator: Adobe Illustrator 14.0.0, SVG Export Plug-In . SVG Version: 6.00 Build 43363)  -->
<!DOCTYPE svg PUBLIC "-//W3C//DTD SVG 1.1//EN" "http://www.w3.org/Graphics/SVG/1.1/DTD/svg11.dtd">
<svg version="1.1" id="Calque_1" xmlns="http://www.w3.org/2000/svg" xmlns:xlink="http://www.w3.org/1999/xlink" x="0px" y="0px"
	 width="80px" height="60px" viewBox="0 0 80 60" enable-background="new 0 0 80 60" xml:space="preserve">
<g>
	<path fill="#003082" d="M21.615,16.3l18.478,13.293l18.287-13.288c0.18-0.128,0.375-0.214,0.576-0.262
		c-0.227-0.072-0.461-0.119-0.712-0.119H21.758c-0.25,0-0.486,0.047-0.712,0.119C21.244,16.091,21.439,16.174,21.615,16.3z"/>
	<path fill="#003082" d="M60.684,40.666V18.42c-0.106,0.176-0.25,0.336-0.428,0.467L45.798,29.39L60.684,40.666z"/>
	<path fill="#003082" d="M19.751,18.89c-0.181-0.131-0.327-0.294-0.435-0.475v22.25L34.183,29.27L19.751,18.89z"/>
	<path fill="#003082" d="M58.907,43.322L43.101,31.352l-2.065,1.5c-0.28,0.203-0.609,0.305-0.938,0.305
		c-0.327,0-0.653-0.102-0.932-0.301l-2.278-1.639L21.094,43.322c-0.229,0.174-0.492,0.258-0.757,0.291
		c0.401,0.289,0.89,0.463,1.421,0.463h36.485c0.53,0,1.019-0.174,1.421-0.463C59.398,43.58,59.137,43.496,58.907,43.322z"/>
</g>
</svg>
