<?xml version="1.0" encoding="utf-8"?>
<!-- Generator: Adobe Illustrator 14.0.0, SVG Export Plug-In . SVG Version: 6.00 Build 43363)  -->
<!DOCTYPE svg PUBLIC "-//W3C//DTD SVG 1.1//EN" "http://www.w3.org/Graphics/SVG/1.1/DTD/svg11.dtd">
<svg version="1.1" id="Calque_1" xmlns="http://www.w3.org/2000/svg" xmlns:xlink="http://www.w3.org/1999/xlink" x="0px" y="0px"
	 width="80px" height="60px" viewBox="0 0 80 60" enable-background="new 0 0 80 60" xml:space="preserve">
<g>
	<path fill="#FFFFFF" d="M12.274,8.83l27.971,20.118L67.927,8.834c0.271-0.194,0.567-0.327,0.873-0.397
		c-0.344-0.105-0.7-0.181-1.079-0.181H12.49c-0.379,0-0.736,0.075-1.079,0.181C11.712,8.507,12.007,8.635,12.274,8.83z"/>
	<path fill="#FFFFFF" d="M71.415,45.711V12.037c-0.162,0.269-0.378,0.51-0.647,0.706l-21.887,15.9L71.415,45.711z"/>
	<path fill="#FFFFFF" d="M9.454,12.749c-0.275-0.197-0.496-0.443-0.659-0.717v33.677L31.3,28.463L9.454,12.749z"/>
	<path fill="#FFFFFF" d="M68.727,49.732L44.798,31.611l-3.125,2.271c-0.425,0.307-0.923,0.459-1.422,0.459
		c-0.493,0-0.987-0.15-1.409-0.453l-3.448-2.48L11.484,49.732c-0.347,0.262-0.743,0.387-1.145,0.439
		c0.606,0.438,1.345,0.701,2.15,0.701h55.23c0.806,0,1.544-0.264,2.15-0.701C69.47,50.119,69.073,49.994,68.727,49.732z"/>
</g>
</svg>
