<?xml version="1.0" encoding="utf-8"?>
<!-- Generator: Adobe Illustrator 14.0.0, SVG Export Plug-In . SVG Version: 6.00 Build 43363)  -->
<!DOCTYPE svg PUBLIC "-//W3C//DTD SVG 1.1//EN" "http://www.w3.org/Graphics/SVG/1.1/DTD/svg11.dtd">
<svg version="1.1" id="Calque_1" xmlns="http://www.w3.org/2000/svg" xmlns:xlink="http://www.w3.org/1999/xlink" x="0px" y="0px"
	 width="80px" height="60px" viewBox="0 0 80 60" enable-background="new 0 0 80 60" xml:space="preserve">
<g>
	<path fill="#003082" d="M31.682,21.725c4.026-4.023,10.195-4.605,14.847-1.742c-1.564,1.564-3.398,3.398-3.398,3.398
		c-1.254,1.52,0.18,2.414,0.894,2.369h8.497c0.448,0,0.806,0,0.806,0s0.358,0,0.806,0h1.654c0.447,0,0.807-0.357,0.807-0.805V13.231
		c0.043-1.075-1.119-2.104-2.328-0.895c0,0-2.011,1.964-3.398,3.309c-7.066-5.188-17.083-4.606-23.479,1.787
		c-3.756,3.757-5.454,8.677-5.276,13.595h6.039C27.971,27.72,29.133,24.321,31.682,21.725z"/>
	<path fill="#003082" d="M51.807,29.016c0.224,3.353-0.939,6.753-3.488,9.3c-4.025,4.025-10.196,4.607-14.847,1.746
		c1.564-1.566,3.399-3.398,3.399-3.398c1.252-1.521-0.135-2.416-0.894-2.371h-8.498c-0.446,0-0.804,0-0.804,0s-0.359,0-0.806,0
		h-1.654c-0.448,0-0.805,0.357-0.805,0.803V46.77c-0.045,1.072,1.118,2.102,2.326,0.895c0,0,2.013-1.969,3.398-3.309
		c7.11,5.188,17.083,4.605,23.479-1.787c3.712-3.76,5.455-8.678,5.276-13.598L51.807,29.016L51.807,29.016z"/>
</g>
</svg>
