<?xml version="1.0" encoding="utf-8"?>
<!-- Generator: Adobe Illustrator 14.0.0, SVG Export Plug-In . SVG Version: 6.00 Build 43363)  -->
<!DOCTYPE svg PUBLIC "-//W3C//DTD SVG 1.1//EN" "http://www.w3.org/Graphics/SVG/1.1/DTD/svg11.dtd">
<svg version="1.1" id="Calque_1" xmlns="http://www.w3.org/2000/svg" xmlns:xlink="http://www.w3.org/1999/xlink" x="0px" y="0px"
	 width="80px" height="60px" viewBox="0 0 80 60" enable-background="new 0 0 80 60" xml:space="preserve">
<g>
	<path fill="#FFFFFF" d="M28.27,18.604c5.496-5.495,13.919-6.29,20.27-2.381c-2.137,2.137-4.641,4.64-4.641,4.64
		c-1.71,2.074,0.246,3.296,1.222,3.236H56.72c0.613,0,1.102,0,1.102,0s0.487,0,1.099,0h2.259c0.611,0,1.101-0.489,1.101-1.099V7.005
		c0.06-1.467-1.528-2.871-3.178-1.221c0,0-2.745,2.684-4.639,4.517c-9.648-7.082-23.323-6.289-32.055,2.441
		c-5.128,5.128-7.447,11.844-7.203,18.561h8.243C23.203,26.786,24.79,22.145,28.27,18.604z"/>
	<path fill="#FFFFFF" d="M55.745,28.557c0.305,4.579-1.282,9.219-4.764,12.699c-5.494,5.493-13.918,6.288-20.269,2.381
		c2.137-2.139,4.64-4.64,4.64-4.64c1.71-2.076-0.184-3.298-1.222-3.236H22.532c-0.611,0-1.099,0-1.099,0s-0.49,0-1.101,0h-2.258
		c-0.61,0-1.1,0.488-1.1,1.099v15.935c-0.061,1.466,1.526,2.87,3.176,1.222c0,0,2.748-2.688,4.64-4.517
		c9.708,7.08,23.323,6.286,32.055-2.442c5.066-5.131,7.447-11.846,7.202-18.562L55.745,28.557L55.745,28.557z"/>
</g>
</svg>
