<?xml version="1.0" encoding="utf-8"?>
<!-- Generator: Adobe Illustrator 14.0.0, SVG Export Plug-In . SVG Version: 6.00 Build 43363)  -->
<!DOCTYPE svg PUBLIC "-//W3C//DTD SVG 1.1//EN" "http://www.w3.org/Graphics/SVG/1.1/DTD/svg11.dtd">
<svg version="1.1" id="Calque_1" xmlns="http://www.w3.org/2000/svg" xmlns:xlink="http://www.w3.org/1999/xlink" x="0px" y="0px"
	 width="80px" height="60px" viewBox="0 0 80 60" enable-background="new 0 0 80 60" xml:space="preserve">
<g>
	<g id="Layer_1">
		<g>
			<g>
				<path fill="#001C54" d="M38.69,16.004c0,0-1.406-3.144-3.143-3.144H21.925c-1.735,0-3.143,1.407-3.143,3.144v4.714h22.717
					L38.69,16.004z M58.074,23.862h-6.286h-8.416h-24.59v3.143v7.467v11.523c0,1.736,1.407,3.145,3.143,3.145h36.149
					c1.736,0,3.144-1.408,3.144-3.145v-18.99C61.218,25.269,59.811,23.862,58.074,23.862z"/>
			</g>
		</g>
	</g>
	<g>
		<path fill="#FFFFFF" d="M41.539,42.593c0,0.852-0.688,1.541-1.54,1.541l0,0c-0.85,0-1.539-0.689-1.539-1.541V29.892
			c0-0.85,0.689-1.539,1.539-1.539l0,0c0.852,0,1.54,0.689,1.54,1.539V42.593z"/>
		<path fill="#FFFFFF" d="M46.35,34.704c0.851,0,1.54,0.688,1.54,1.539l0,0c0,0.851-0.689,1.54-1.54,1.54H33.648
			c-0.851,0-1.539-0.689-1.539-1.54l0,0c0-0.851,0.688-1.539,1.539-1.539H46.35z"/>
	</g>
</g>
</svg>
