<?xml version="1.0" encoding="utf-8"?>
<!-- Generator: Adobe Illustrator 14.0.0, SVG Export Plug-In . SVG Version: 6.00 Build 43363)  -->
<!DOCTYPE svg PUBLIC "-//W3C//DTD SVG 1.1//EN" "http://www.w3.org/Graphics/SVG/1.1/DTD/svg11.dtd">
<svg version="1.1" id="Calque_1" xmlns="http://www.w3.org/2000/svg" xmlns:xlink="http://www.w3.org/1999/xlink" x="0px" y="0px"
	 width="80px" height="60px" viewBox="0 0 80 60" enable-background="new 0 0 80 60" xml:space="preserve">
<g>
	<path fill="#A9B5CB" d="M64.809,5.192v49.617H15.192V5.192H64.809 M66.686,3.314H13.314v53.372h53.371V3.314L66.686,3.314z"/>
	<path id="Cloud_2_" fill="#A9B5CB" d="M52.914,27.762c0.036-0.285,0.043-0.571,0.043-0.865c0-5.039-4.081-9.123-9.128-9.123
		c-3.906,0-7.236,2.462-8.535,5.928c-0.86-0.944-2.087-1.548-3.458-1.548c-2.601,0-4.706,2.103-4.706,4.701
		c0,0.307,0.033,0.602,0.092,0.894c-3.462,0.567-6.114,3.555-6.114,7.178c0,4.037,3.269,7.297,7.301,7.297H51.59
		c4.033,0,7.299-3.26,7.299-7.297C58.892,31.352,56.311,28.391,52.914,27.762z"/>
</g>
</svg>
