<?xml version="1.0" encoding="utf-8"?>
<!-- Generator: Adobe Illustrator 14.0.0, SVG Export Plug-In . SVG Version: 6.00 Build 43363)  -->
<!DOCTYPE svg PUBLIC "-//W3C//DTD SVG 1.1//EN" "http://www.w3.org/Graphics/SVG/1.1/DTD/svg11.dtd">
<svg version="1.1" id="Calque_1" xmlns="http://www.w3.org/2000/svg" xmlns:xlink="http://www.w3.org/1999/xlink" x="0px" y="0px"
	 width="80px" height="60px" viewBox="0 0 80 60" enable-background="new 0 0 80 60" xml:space="preserve">
<g>
	<path fill="#A9B5CB" d="M67.625,57.625h-55.25V2.375h55.25V57.625L67.625,57.625z M14.254,55.748h51.494V4.253H14.254V55.748
		L14.254,55.748z"/>
	<path fill-rule="evenodd" clip-rule="evenodd" fill="#A9B5CB" d="M48.156,35.714c-0.627-0.428-1.322-0.742-1.994-1.117
		c5.438-4.543,5.143-12.506,0.99-16.748c-4.066-4.154-10.53-4.09-14.423,0.101c-4.263,4.595-3.968,12.362,1.153,16.663
		c-0.396,0.203-0.748,0.374-1.089,0.563c-0.363,0.2-0.727,0.398-1.065,0.637c-4.928,3.405-7.447,8.261-7.692,14.482
		c-0.008,0.153,0.015,0.297,0.021,0.444h31.898c0.004-0.096,0.014-0.189,0.01-0.29C55.785,44.098,53.203,39.152,48.156,35.714z"/>
</g>
</svg>
