<?xml version="1.0" encoding="utf-8"?>
<!-- Generator: Adobe Illustrator 14.0.0, SVG Export Plug-In . SVG Version: 6.00 Build 43363)  -->
<!DOCTYPE svg PUBLIC "-//W3C//DTD SVG 1.1//EN" "http://www.w3.org/Graphics/SVG/1.1/DTD/svg11.dtd">
<svg version="1.1" id="Calque_1" xmlns="http://www.w3.org/2000/svg" xmlns:xlink="http://www.w3.org/1999/xlink" x="0px" y="0px"
	 width="80px" height="60px" viewBox="0 0 80 60" enable-background="new 0 0 80 60" xml:space="preserve">
<g id="Layer_4">
	<path fill="#A9B5CB" d="M54.785,42.297l-9.705-9.702c1.25-1.901,1.977-4.17,1.977-6.611c0-6.668-5.404-12.074-12.071-12.074
		c-6.671,0-12.074,5.406-12.074,12.074c0,6.667,5.403,12.072,12.074,12.072c2.278,0,4.407-0.644,6.225-1.742l9.777,9.777
		L54.785,42.297z M28.279,25.983c0-3.7,3.009-6.707,6.707-6.707c3.699,0,6.708,3.007,6.708,6.707c0,3.697-3.008,6.706-6.708,6.706
		C31.288,32.689,28.279,29.681,28.279,25.983z"/>
</g>
</svg>
