<?xml version="1.0" encoding="utf-8"?>
<!-- Generator: Adobe Illustrator 14.0.0, SVG Export Plug-In . SVG Version: 6.00 Build 43363)  -->
<!DOCTYPE svg PUBLIC "-//W3C//DTD SVG 1.1//EN" "http://www.w3.org/Graphics/SVG/1.1/DTD/svg11.dtd">
<svg version="1.1" id="Calque_1" xmlns="http://www.w3.org/2000/svg" xmlns:xlink="http://www.w3.org/1999/xlink" x="0px" y="0px"
	 width="80px" height="60px" viewBox="0 0 80 60" enable-background="new 0 0 80 60" xml:space="preserve">
<g id="Your_Icon_4_">
	<path fill="#00D4FF" d="M63.066,16.189c-0.398-0.093-0.621,0.205-0.971,0.505L49.301,26.38c-0.086,0.396,0.174,0.794,0.574,0.879
		l4.709,1.018c0.184,2.94-0.337,7.313-3.923,11.305c-5.479,6.088-13.803,4.857-13.803,4.857l0.816,0.34c0,0,9.358,4.9,18.372-0.053
		c7.555-4.156,9.263-10.934,9.647-14.057l4.858,1.051c0.398,0.088,0.791-0.166,0.879-0.561L63.76,17.138
		C63.539,16.712,63.465,16.272,63.066,16.189z"/>
</g>
<g id="Your_Icon_5_">
	<path fill="#00D4FF" d="M16.933,46.928c0.399,0.092,0.622-0.205,0.972-0.506L30.7,36.736c0.085-0.396-0.174-0.795-0.575-0.881
		l-4.709-1.016c-0.183-2.941,0.337-7.314,3.923-11.306c5.479-6.089,13.802-4.857,13.802-4.857l-0.816-0.341
		c0,0-9.357-4.9-18.371,0.055c-7.555,4.156-9.263,10.933-9.647,14.057l-4.859-1.051c-0.398-0.09-0.792,0.164-0.878,0.559
		l7.672,14.021C16.46,46.404,16.535,46.844,16.933,46.928z"/>
</g>
</svg>
