<?xml version="1.0" encoding="utf-8"?>
<!-- Generator: Adobe Illustrator 14.0.0, SVG Export Plug-In . SVG Version: 6.00 Build 43363)  -->
<!DOCTYPE svg PUBLIC "-//W3C//DTD SVG 1.1//EN" "http://www.w3.org/Graphics/SVG/1.1/DTD/svg11.dtd">
<svg version="1.1" id="Calque_1" xmlns="http://www.w3.org/2000/svg" xmlns:xlink="http://www.w3.org/1999/xlink" x="0px" y="0px"
	 width="80px" height="60px" viewBox="0 0 80 60" enable-background="new 0 0 80 60" xml:space="preserve">
<g>
	<g id="XMLID_2_">
		<g>
			<path fill="#FFFFFF" d="M61.079,38.751c0.531,0.508,0.531,1.34,0.023,1.871c-0.254,0.254-0.601,0.393-0.947,0.393
				c-0.323,0-0.646-0.116-0.9-0.37l-2.933-2.84v7.481c0,0.739-0.601,1.316-1.316,1.316s-1.316-0.577-1.316-1.316v-7.481l-2.933,2.84
				c-0.508,0.508-1.34,0.485-1.848-0.022c-0.508-0.531-0.508-1.363,0.023-1.871l5.149-5.011c0.508-0.485,1.34-0.485,1.848,0
				L61.079,38.751z"/>
			<path fill="#001C53" d="M61.103,40.622c0.508-0.531,0.508-1.363-0.023-1.871L55.93,33.74c-0.508-0.485-1.34-0.485-1.848,0
				l-5.149,5.011c-0.531,0.508-0.531,1.34-0.023,1.871c0.508,0.508,1.34,0.53,1.848,0.022l2.933-2.84v7.481
				c0,0.739,0.601,1.316,1.316,1.316s1.316-0.577,1.316-1.316v-7.481l2.933,2.84c0.254,0.254,0.577,0.37,0.9,0.37
				C60.502,41.015,60.849,40.876,61.103,40.622z M67.106,39.513c0,6.675-5.427,12.102-12.124,12.102
				c-6.674,0-12.101-5.427-12.101-12.102c0-6.696,5.427-12.124,12.101-12.124C61.68,27.389,67.106,32.816,67.106,39.513z"/>
			<path fill="#001C53" d="M47.894,22.54h6.281c1.062,0,2.009,0.531,2.563,1.339c-0.578-0.069-1.155-0.093-1.756-0.093
				c-8.683,0-15.703,7.043-15.703,15.726c0,3.049,0.877,5.89,2.402,8.313H18.034c-1.732,0-3.141-1.408-3.141-3.141V33.163v-7.482
				V22.54h24.571H47.894z"/>
			<path fill="#001C53" d="M34.8,14.688l2.794,4.711h-22.7v-4.711c0-1.732,1.409-3.141,3.141-3.141h13.625
				C33.391,11.547,34.8,14.688,34.8,14.688z"/>
		</g>
		<g>
		</g>
	</g>
</g>
</svg>
