<?xml version="1.0" encoding="utf-8"?>
<!-- Generator: Adobe Illustrator 14.0.0, SVG Export Plug-In . SVG Version: 6.00 Build 43363)  -->
<!DOCTYPE svg PUBLIC "-//W3C//DTD SVG 1.1//EN" "http://www.w3.org/Graphics/SVG/1.1/DTD/svg11.dtd">
<svg version="1.1" id="Calque_1" xmlns="http://www.w3.org/2000/svg" xmlns:xlink="http://www.w3.org/1999/xlink" x="0px" y="0px"
	 width="80px" height="60px" viewBox="0 0 80 60" enable-background="new 0 0 80 60" xml:space="preserve">
<g>
	<g id="XMLID_1_">
		<g>
			<path fill="#FFFFFF" d="M44.495,39.524l5.15-5.011c0.508-0.485,1.339-0.485,1.847,0l5.15,5.011
				c0.531,0.508,0.531,1.34,0.022,1.87c-0.254,0.255-0.6,0.393-0.946,0.393c-0.323,0-0.646-0.115-0.9-0.369l-2.934-2.84v7.481
				c0,0.739-0.577,1.316-1.315,1.316c-0.717,0-1.316-0.577-1.316-1.316v-7.481l-2.934,2.84c-0.508,0.508-1.339,0.485-1.847-0.023
				C43.964,40.864,43.964,40.032,44.495,39.524z"/>
			<path fill="#001C53" d="M51.492,34.514c-0.508-0.485-1.339-0.485-1.847,0l-5.15,5.011c-0.531,0.508-0.531,1.34-0.022,1.87
				c0.508,0.509,1.339,0.531,1.847,0.023l2.934-2.84v7.481c0,0.739,0.6,1.316,1.316,1.316c0.738,0,1.315-0.577,1.315-1.316v-7.481
				l2.934,2.84c0.254,0.254,0.577,0.369,0.9,0.369c0.347,0,0.692-0.138,0.946-0.393c0.509-0.53,0.509-1.362-0.022-1.87
				L51.492,34.514z M50.546,52.388c-6.674,0-12.101-5.428-12.101-12.102c0-6.696,5.427-12.124,12.101-12.124
				c6.697,0,12.124,5.427,12.124,12.124C62.67,46.96,57.243,52.388,50.546,52.388z"/>
			<path fill="#001C53" d="M25.929,9.596h23.093c2.125,0,3.856,1.732,3.856,3.879v11.246c-0.762-0.115-1.523-0.185-2.332-0.185
				c-8.683,0-15.727,7.043-15.727,15.749c0,2.841,0.785,5.52,2.102,7.829H25.929c-2.148,0-3.88-1.732-3.88-3.88v-30.76
				C22.049,11.328,23.781,9.596,25.929,9.596z"/>
		</g>
		<g>
		</g>
	</g>
</g>
</svg>
